<svg xmlns="http://www.w3.org/2000/svg" xmlns:xlink="http://www.w3.org/1999/xlink" version="1.1" viewBox="0 0 600 600"><path id="The-Tr--sh-Challenge-copy" fill="#000" fill-opacity="1" stroke="none" d="M442.15 419 C437.683 419 433.45 418.434 429.45 417.301 425.45 416.167 421.751 414.1 418.351 411.1 L425.55 401.301 C427.95 403.501 430.45 405.2 433.05 406.4 435.65 407.6 438.65 408.199 442.05 408.199 444.917 408.199 447.333 407.8 449.3 407 451.267 406.2 452.833 405.099 453.999 403.699 455.166 402.299 455.999 400.617 456.499 398.65 456.999 396.684 457.249 394.5 457.249 392.1 L457.249 388.6 457.05 388.6 C455.317 390.933 453.016 392.683 450.15 393.85 447.283 395.016 444.351 395.6 441.351 395.6 437.751 395.6 434.483 394.95 431.55 393.65 428.617 392.35 426.099 390.6 423.999 388.4 421.899 386.2 420.283 383.6 419.15 380.6 418.016 377.6 417.45 374.4 417.45 371 417.45 367.467 417.983 364.166 419.05 361.1 420.117 358.033 421.682 355.366 423.749 353.1 425.816 350.833 428.3 349.05 431.2 347.75 434.1 346.45 437.416 345.801 441.15 345.801 444.55 345.801 447.716 346.467 450.65 347.801 453.583 349.134 455.916 351.266 457.65 354.199 L457.851 354.199 457.851 347 469.249 347 469.249 390.699 C469.249 395.033 468.716 398.949 467.65 402.449 466.583 405.949 464.934 408.916 462.7 411.35 460.467 413.783 457.649 415.667 454.249 417 450.849 418.333 446.816 419 442.15 419 Z M108.05 396.801 C102.583 396.801 97.566 395.917 92.999 394.15 88.433 392.384 84.5 389.884 81.2 386.65 77.9 383.417 75.317 379.533 73.45 375 71.584 370.467 70.65 365.434 70.65 359.9 70.65 354.234 71.584 349.083 73.45 344.449 75.317 339.816 77.9 335.866 81.2 332.6 84.5 329.333 88.433 326.817 92.999 325.051 97.566 323.284 102.583 322.4 108.05 322.4 112.85 322.4 117.3 323.249 121.4 324.949 125.5 326.649 129.317 329.533 132.851 333.6 L123.05 340.801 C120.45 338.001 117.933 336.133 115.499 335.199 113.066 334.266 110.616 333.801 108.15 333.801 104.483 333.801 101.167 334.45 98.2 335.75 95.234 337.05 92.683 338.85 90.55 341.15 88.417 343.45 86.767 346.133 85.601 349.199 84.434 352.266 83.851 355.566 83.851 359.1 83.851 362.9 84.434 366.4 85.601 369.6 86.767 372.8 88.417 375.567 90.55 377.9 92.683 380.234 95.234 382.067 98.2 383.4 101.167 384.734 104.483 385.4 108.15 385.4 111.016 385.4 113.799 384.716 116.499 383.35 119.199 381.983 121.717 379.801 124.05 376.801 L134.45 384.199 C131.25 388.599 127.349 391.801 122.749 393.801 118.149 395.801 113.25 396.801 108.05 396.801 Z M213.55 396.199 C211.35 396.199 209.201 395.901 207.101 395.301 205.001 394.701 203.133 393.8 201.499 392.6 199.866 391.4 198.55 389.9 197.55 388.1 196.55 386.3 196.05 384.201 196.05 381.801 196.05 379.201 196.517 376.984 197.45 375.15 198.384 373.317 199.634 371.784 201.2 370.551 202.767 369.317 204.583 368.333 206.65 367.6 208.716 366.866 210.867 366.316 213.101 365.949 215.334 365.583 217.584 365.35 219.851 365.25 222.117 365.15 224.249 365.1 226.249 365.1 L229.249 365.1 229.249 363.801 C229.249 360.801 228.216 358.551 226.15 357.051 224.083 355.551 221.449 354.801 218.249 354.801 215.716 354.801 213.35 355.25 211.15 356.15 208.95 357.05 207.05 358.267 205.45 359.801 L199.15 353.5 C201.816 350.767 204.933 348.8 208.499 347.6 212.066 346.4 215.75 345.801 219.55 345.801 222.95 345.801 225.816 346.183 228.15 346.949 230.483 347.716 232.417 348.7 233.95 349.9 235.484 351.1 236.666 352.484 237.499 354.051 238.333 355.617 238.933 357.201 239.3 358.801 239.667 360.401 239.884 361.949 239.95 363.449 240.017 364.949 240.05 366.267 240.05 367.4 L240.05 395 229.249 395 229.249 388.4 228.95 388.4 C227.217 391.134 225.017 393.116 222.351 394.35 219.684 395.583 216.75 396.199 213.55 396.199 Z M328.749 396.199 C325.149 396.199 321.75 395.6 318.55 394.4 315.35 393.2 312.583 391.501 310.249 389.301 307.916 387.101 306.067 384.45 304.7 381.35 303.334 378.25 302.65 374.8 302.65 371 302.65 367.2 303.334 363.75 304.7 360.65 306.067 357.55 307.916 354.899 310.249 352.699 312.583 350.499 315.35 348.8 318.55 347.6 321.75 346.4 325.149 345.801 328.749 345.801 332.083 345.801 335.133 346.384 337.9 347.551 340.666 348.717 343.033 350.4 344.999 352.6 346.966 354.8 348.501 357.517 349.601 360.75 350.701 363.983 351.249 367.7 351.249 371.9 L351.249 375.199 314.65 375.199 C315.05 378.799 316.451 381.6 318.851 383.6 321.251 385.6 324.15 386.6 327.55 386.6 330.55 386.6 333.067 385.983 335.101 384.75 337.134 383.517 338.917 381.966 340.45 380.1 L349.05 386.6 C346.25 390.066 343.116 392.533 339.65 394 336.183 395.467 332.549 396.199 328.749 396.199 Z M506.55 396.199 C502.95 396.199 499.551 395.6 496.351 394.4 493.151 393.2 490.383 391.501 488.05 389.301 485.717 387.101 483.866 384.45 482.499 381.35 481.133 378.25 480.45 374.8 480.45 371 480.45 367.2 481.133 363.75 482.499 360.65 483.866 357.55 485.717 354.899 488.05 352.699 490.383 350.499 493.151 348.8 496.351 347.6 499.551 346.4 502.95 345.801 506.55 345.801 509.883 345.801 512.934 346.384 515.7 347.551 518.467 348.717 520.833 350.4 522.8 352.6 524.767 354.8 526.3 357.517 527.4 360.75 528.5 363.983 529.05 367.7 529.05 371.9 L529.05 375.199 492.45 375.199 C492.85 378.799 494.25 381.6 496.65 383.6 499.05 385.6 501.951 386.6 505.351 386.6 508.351 386.6 510.866 385.983 512.9 384.75 514.933 383.517 516.716 381.966 518.249 380.1 L526.851 386.6 C524.051 390.066 520.917 392.533 517.45 394 513.984 395.467 510.35 396.199 506.55 396.199 Z M141.851 395 L141.851 319.4 153.851 319.4 153.851 353.699 154.05 353.699 C154.983 351.699 156.633 349.883 158.999 348.25 161.366 346.617 164.416 345.801 168.15 345.801 171.35 345.801 174.067 346.334 176.3 347.4 178.533 348.467 180.349 349.866 181.749 351.6 183.149 353.333 184.149 355.333 184.749 357.6 185.349 359.866 185.65 362.233 185.65 364.699 L185.65 395 173.65 395 173.65 370.699 C173.65 369.366 173.584 367.883 173.45 366.25 173.317 364.617 172.966 363.084 172.4 361.65 171.833 360.217 170.949 359.017 169.749 358.051 168.549 357.084 166.917 356.6 164.851 356.6 162.851 356.6 161.167 356.933 159.8 357.6 158.433 358.266 157.3 359.167 156.4 360.301 155.5 361.434 154.85 362.733 154.45 364.199 154.05 365.666 153.851 367.201 153.851 368.801 L153.851 395 141.851 395 Z M253.15 395 L253.15 319.4 265.15 319.4 265.15 395 253.15 395 Z M279.249 395 L279.249 319.4 291.249 319.4 291.249 395 279.249 395 Z M362.45 395 L362.45 347 373.851 347 373.851 354.699 374.05 354.699 C375.183 352.299 376.916 350.216 379.249 348.449 381.583 346.683 384.749 345.801 388.749 345.801 391.949 345.801 394.666 346.334 396.9 347.4 399.133 348.467 400.951 349.866 402.351 351.6 403.751 353.333 404.751 355.333 405.351 357.6 405.951 359.866 406.249 362.233 406.249 364.699 L406.249 395 394.249 395 394.249 370.699 C394.249 369.366 394.183 367.883 394.05 366.25 393.917 364.617 393.566 363.084 392.999 361.65 392.432 360.217 391.551 359.017 390.351 358.051 389.151 357.084 387.517 356.6 385.45 356.6 383.45 356.6 381.766 356.933 380.4 357.6 379.033 358.266 377.899 359.167 376.999 360.301 376.099 361.434 375.45 362.733 375.05 364.199 374.65 365.666 374.45 367.201 374.45 368.801 L374.45 395 362.45 395 Z M216.45 387.199 C220.584 387.199 223.634 386.217 225.601 384.25 227.567 382.283 228.55 379.599 228.55 376.199 L228.55 373.5 226.05 373.5 C224.383 373.5 222.517 373.566 220.45 373.699 218.384 373.833 216.434 374.15 214.601 374.65 212.767 375.15 211.217 375.883 209.95 376.85 208.684 377.816 208.05 379.167 208.05 380.9 208.05 382.034 208.3 382.983 208.8 383.75 209.3 384.517 209.949 385.166 210.749 385.699 211.549 386.233 212.45 386.616 213.45 386.85 214.45 387.083 215.45 387.199 216.45 387.199 Z M443.55 384.801 C445.75 384.801 447.733 384.433 449.499 383.699 451.266 382.966 452.766 381.983 453.999 380.75 455.233 379.517 456.184 378.034 456.851 376.301 457.517 374.567 457.851 372.699 457.851 370.699 457.851 366.499 456.583 363.1 454.05 360.5 451.517 357.9 448.05 356.6 443.65 356.6 441.516 356.6 439.584 356.95 437.851 357.65 436.117 358.35 434.633 359.317 433.4 360.551 432.166 361.784 431.199 363.284 430.499 365.051 429.799 366.817 429.45 368.767 429.45 370.9 429.45 372.834 429.799 374.634 430.499 376.301 431.199 377.967 432.184 379.433 433.45 380.699 434.717 381.966 436.217 382.966 437.95 383.699 439.684 384.433 441.55 384.801 443.55 384.801 Z M314.65 366.199 L339.249 366.199 C339.182 362.666 338.084 359.883 335.95 357.85 333.817 355.816 330.85 354.801 327.05 354.801 323.45 354.801 320.599 355.834 318.499 357.9 316.399 359.967 315.116 362.733 314.65 366.199 Z M492.45 366.199 L517.05 366.199 C516.983 362.666 515.883 359.883 513.749 357.85 511.616 355.816 508.651 354.801 504.851 354.801 501.251 354.801 498.4 355.834 496.3 357.9 494.2 359.967 492.917 362.733 492.45 366.199 Z M214.4 259.199 C210.8 259.199 207.4 258.6 204.2 257.4 201 256.2 198.233 254.501 195.9 252.301 193.566 250.101 191.717 247.45 190.351 244.35 188.984 241.25 188.3 237.8 188.3 234 188.3 230.2 188.984 226.75 190.351 223.65 191.717 220.55 193.566 217.899 195.9 215.699 198.233 213.499 201 211.8 204.2 210.6 207.4 209.4 210.8 208.801 214.4 208.801 217.733 208.801 220.783 209.384 223.55 210.551 226.317 211.717 228.683 213.4 230.65 215.6 232.616 217.8 234.149 220.517 235.249 223.75 236.349 226.983 236.9 230.7 236.9 234.9 L236.9 238.199 200.3 238.199 C200.7 241.799 202.099 244.6 204.499 246.6 206.899 248.6 209.8 249.6 213.2 249.6 216.2 249.6 218.716 248.983 220.749 247.75 222.783 246.517 224.567 244.966 226.101 243.1 L234.7 249.6 C231.9 253.066 228.767 255.533 225.3 257 221.833 258.467 218.2 259.199 214.4 259.199 Z M450.3 259.199 C446.567 259.199 443.133 258.666 439.999 257.6 436.866 256.533 434.067 254.601 431.601 251.801 L439.601 244.301 C441.134 246.034 442.783 247.451 444.55 248.551 446.317 249.651 448.466 250.199 450.999 250.199 451.866 250.199 452.767 250.1 453.7 249.9 454.634 249.7 455.5 249.367 456.3 248.9 457.1 248.434 457.749 247.85 458.249 247.15 458.749 246.45 458.999 245.633 458.999 244.699 458.999 243.033 458.367 241.8 457.101 241 455.834 240.2 454.233 239.551 452.3 239.051 450.367 238.551 448.283 238.084 446.05 237.65 443.817 237.217 441.733 236.517 439.8 235.551 437.867 234.584 436.266 233.233 434.999 231.5 433.733 229.767 433.101 227.367 433.101 224.301 433.101 221.634 433.649 219.316 434.749 217.35 435.849 215.383 437.301 213.767 439.101 212.5 440.901 211.233 442.967 210.299 445.3 209.699 447.633 209.099 450 208.801 452.4 208.801 455.6 208.801 458.766 209.349 461.9 210.449 465.033 211.549 467.566 213.433 469.499 216.1 L461.499 223.301 C459.166 220.034 456.034 218.4 452.101 218.4 450.501 218.4 448.933 218.8 447.4 219.6 445.866 220.4 445.101 221.7 445.101 223.5 445.101 224.967 445.733 226.033 446.999 226.699 448.266 227.366 449.867 227.934 451.8 228.4 453.733 228.867 455.817 229.35 458.05 229.85 460.283 230.35 462.367 231.117 464.3 232.15 466.233 233.184 467.834 234.6 469.101 236.4 470.367 238.2 470.999 240.667 470.999 243.801 470.999 246.667 470.383 249.084 469.15 251.051 467.916 253.017 466.317 254.601 464.351 255.801 462.384 257.001 460.167 257.867 457.7 258.4 455.234 258.934 452.767 259.199 450.3 259.199 Z M91.499 258 L91.499 198.6 69.8 198.6 69.8 187.199 125.8 187.199 125.8 198.6 104.101 198.6 104.101 258 91.499 258 Z M133.3 258 L133.3 182.4 145.3 182.4 145.3 216.699 145.499 216.699 C146.433 214.699 148.084 212.883 150.45 211.25 152.817 209.617 155.867 208.801 159.601 208.801 162.801 208.801 165.516 209.334 167.749 210.4 169.983 211.467 171.8 212.866 173.2 214.6 174.6 216.333 175.6 218.333 176.2 220.6 176.8 222.866 177.101 225.233 177.101 227.699 L177.101 258 165.101 258 165.101 233.699 C165.101 232.366 165.033 230.883 164.9 229.25 164.766 227.617 164.417 226.084 163.851 224.65 163.284 223.217 162.4 222.017 161.2 221.051 160 220.084 158.367 219.6 156.3 219.6 154.3 219.6 152.616 219.933 151.249 220.6 149.883 221.266 148.751 222.167 147.851 223.301 146.951 224.434 146.3 225.733 145.9 227.199 145.5 228.666 145.3 230.201 145.3 231.801 L145.3 258 133.3 258 Z M293.3 258 L293.3 198.6 271.601 198.6 271.601 187.199 327.601 187.199 327.601 198.6 305.9 198.6 305.9 258 293.3 258 Z M325.9 258 L325.9 210 337.9 210 337.9 217.6 338.101 217.6 C339.434 214.8 341.333 212.633 343.8 211.1 346.267 209.566 349.1 208.801 352.3 208.801 353.033 208.801 353.75 208.867 354.45 209 355.15 209.133 355.867 209.3 356.601 209.5 L356.601 221.1 C355.601 220.833 354.616 220.616 353.65 220.449 352.683 220.283 351.733 220.199 350.8 220.199 348 220.199 345.75 220.717 344.05 221.75 342.35 222.783 341.05 223.967 340.15 225.301 339.25 226.634 338.651 227.967 338.351 229.301 338.051 230.634 337.9 231.634 337.9 232.301 L337.9 258 325.9 258 Z M480.3 258 L480.3 182.4 492.3 182.4 492.3 216.699 492.499 216.699 C493.433 214.699 495.084 212.883 497.45 211.25 499.817 209.617 502.867 208.801 506.601 208.801 509.801 208.801 512.516 209.334 514.749 210.4 516.983 211.467 518.8 212.866 520.2 214.6 521.6 216.333 522.6 218.333 523.2 220.6 523.8 222.866 524.101 225.233 524.101 227.699 L524.101 258 512.101 258 512.101 233.699 C512.101 232.366 512.033 230.883 511.9 229.25 511.766 227.617 511.417 226.084 510.851 224.65 510.284 223.217 509.4 222.017 508.2 221.051 507 220.084 505.367 219.6 503.3 219.6 501.3 219.6 499.616 219.933 498.249 220.6 496.883 221.266 495.751 222.167 494.851 223.301 493.951 224.434 493.3 225.733 492.9 227.199 492.5 228.666 492.3 230.201 492.3 231.801 L492.3 258 480.3 258 Z M200.3 229.199 L224.9 229.199 C224.833 225.666 223.734 222.883 221.601 220.85 219.467 218.816 216.5 217.801 212.7 217.801 209.1 217.801 206.25 218.834 204.15 220.9 202.05 222.967 200.767 225.733 200.3 229.199 Z"/><path id="Trash-copy" fill="#000" fill-opacity="1" stroke="none" d="M379.271 257.209 C377.371 257.209 375.869 256.692 374.764 255.66 373.659 254.627 373.066 253.151 372.983 251.23 L371.001 205.975 366.323 205.975 C365.704 205.975 365.162 205.742 364.697 205.278 364.232 204.813 364 204.261 364 203.621 364 203.001 364.232 202.459 364.697 201.994 365.162 201.53 365.769 201.209 366.389 201.209 L380.19 201.209 380.19 201.209 380.19 201.209 380.19 201.209 380.19 201.209 380.19 196.431 C380.076 194.225 380.878 192.476 382.313 191.123 383.748 189.771 385.674 189 388.152 189 L399.829 189 C402.317 189 404.233 189.771 405.668 191.123 407.103 192.476 407.792 194.098 407.792 196.431 L407.792 201.209 407.792 201.209 407.792 201.209 407.792 201.209 407.792 201.209 421.592 201.209 C422.317 201.297 422.864 201.525 423.318 201.979 423.773 202.433 424 202.98 424 203.621 424 204.261 423.773 204.813 423.318 205.278 422.864 205.742 422.317 205.975 421.677 205.975 L417.03 205.975 415.048 251.23 C414.965 253.151 414.372 254.627 413.267 255.66 412.162 256.692 410.65 257.209 408.729 257.209 L379.271 257.209 Z M394.012 249.509 C394.942 249.509 395.695 248.755 395.695 247.826 L395.695 211.726 C395.695 210.796 394.942 210.043 394.012 210.043 393.083 210.043 392.329 210.796 392.329 211.726 L392.329 247.826 C392.329 248.755 393.083 249.509 394.012 249.509 Z M384.307 249.498 C384.321 249.498 384.336 249.497 384.35 249.497 385.279 249.464 386.006 248.685 385.974 247.756 L384.714 211.678 C384.681 210.749 383.902 210.022 382.973 210.055 382.044 210.087 381.317 210.867 381.35 211.796 L382.61 247.874 C382.642 248.788 383.397 249.507 384.307 249.498 Z M403.719 249.498 C404.628 249.507 405.384 248.788 405.416 247.874 L406.676 211.796 C406.708 210.867 405.981 210.087 405.052 210.055 404.124 210.022 403.344 210.749 403.312 211.678 L402.052 247.756 C402.019 248.685 402.746 249.464 403.675 249.497 403.69 249.497 403.704 249.498 403.719 249.498 Z M385.763 201.209 L385.763 201.209 385.763 201.209 402.218 201.209 402.218 201.209 402.483 201.209 402.483 201.209 402.218 201.209 402.218 196.962 C402.286 196.083 401.917 195.579 401.422 195.104 400.926 194.629 400.411 194.308 399.564 194.308 L388.417 194.308 C387.593 194.266 386.789 194.629 386.294 195.104 385.798 195.579 385.763 196.177 385.763 196.962 L385.763 201.209 385.763 201.209 385.763 201.209 Z"/></svg>