<svg xmlns="http://www.w3.org/2000/svg" width="3000" height="3000" fill-rule="evenodd"><path d="M312.383 1936.791c-34.859 0-60.724-6.973-77.596-20.916s-25.307-35.415-25.307-64.418v-130.094c0-29.002 8.435-50.544 25.307-64.627s42.737-21.125 77.596-21.125h102.066c5.298 0 9.133 1.185 11.504 3.555s3.555 6.205 3.555 11.504v50.615c0 5.298-1.184 9.132-3.555 11.502s-6.205 3.557-11.504 3.557h-84.08c-8.645 0-15.057 1.743-19.24 5.229s-6.275 8.716-6.275 15.688v99.555c0 6.972 2.092 12.063 6.275 15.27s10.595 4.811 19.24 4.811h84.08c5.298 0 9.133 1.185 11.504 3.555s3.555 6.205 3.555 11.504v49.777c0 5.298-1.184 9.133-3.555 11.504s-6.205 3.557-11.504 3.557H312.383zm179.453 0c-5.299 0-9.133-1.186-11.504-3.557s-3.555-6.205-3.555-11.504v-271.06c0-5.299 1.185-9.133 3.555-11.504s6.205-3.555 11.504-3.555h64.836c5.298 0 9.134 1.185 11.504 3.555s3.557 6.205 3.557 11.504v90.771h69.855v-90.771c0-5.299 1.186-9.133 3.557-11.504s6.206-3.555 11.504-3.555h64.836c5.299 0 9.133 1.185 11.504 3.555s3.555 6.205 3.555 11.504v271.061c0 5.298-1.185 9.133-3.555 11.504s-6.205 3.557-11.504 3.557h-64.836c-5.298 0-9.134-1.186-11.504-3.557s-3.557-6.205-3.557-11.504v-92.863h-69.855v92.863c0 5.298-1.186 9.133-3.557 11.504s-6.205 3.557-11.504 3.557h-64.836zm311.219 0c-5.299 0-9.133-1.186-11.504-3.557s-3.557-6.205-3.557-11.504v-110.432c0-8.366 1.325-17.987 3.975-28.863s6.762-23.563 12.34-38.064l36.393-94.957c1.673-4.741 4.253-8.226 7.738-10.457s8.018-3.346 13.596-3.346h112.523c5.299 0 9.69 1.115 13.176 3.346s6.067 5.716 7.74 10.457l36.393 94.957c5.578 14.501 9.691 27.188 12.34 38.064s3.973 20.497 3.973 28.863v110.432c0 5.298-1.184 9.133-3.555 11.504s-6.205 3.557-11.504 3.557h-63.164c-5.577 0-9.691-1.186-12.34-3.557s-3.973-6.205-3.973-11.504v-58.562h-74.041v58.563c0 5.298-1.184 9.133-3.555 11.504s-6.205 3.557-11.504 3.557h-61.49zm311.637 0c-5.298 0-9.133-1.186-11.504-3.557s-3.557-6.205-3.557-11.504v-271.06c0-5.299 1.186-9.133 3.557-11.504s6.206-3.555 11.504-3.555h64.836c5.298 0 9.133 1.185 11.504 3.555s3.555 6.205 3.555 11.504v207.061h57.309v-67.766c0-5.299 1.184-9.133 3.555-11.504s6.205-3.555 11.504-3.555h60.654c5.299 0 9.133 1.185 11.504 3.555s3.555 6.205 3.555 11.504v131.766c0 5.298-1.185 9.133-3.555 11.504s-6.205 3.557-11.504 3.557h-212.916zm290.721 0c-5.298 0-9.133-1.186-11.504-3.557s-3.555-6.205-3.555-11.504v-271.06c0-5.299 1.184-9.133 3.555-11.504s6.205-3.555 11.504-3.555h64.838c5.299 0 9.133 1.185 11.504 3.555s3.555 6.205 3.555 11.504v207.061h57.307v-67.766c0-5.299 1.187-9.133 3.557-11.504s6.205-3.555 11.504-3.555h60.654c5.298 0 9.131 1.185 11.502 3.555s3.557 6.205 3.557 11.504v131.766c0 5.298-1.186 9.133-3.557 11.504s-6.203 3.557-11.502 3.557h-212.918zm290.721 0c-5.298 0-9.131-1.186-11.502-3.557s-3.557-6.205-3.557-11.504v-271.06c0-5.299 1.186-9.133 3.557-11.504s6.203-3.555 11.502-3.555h194.094c5.298 0 9.133 1.185 11.504 3.555s3.555 6.205 3.555 11.504v48.941c0 5.298-1.184 9.133-3.555 11.504s-6.205 3.555-11.504 3.555h-115.451v32.211h81.568c5.299 0 9.133 1.184 11.504 3.555s3.557 6.205 3.557 11.504v44.758c0 5.299-1.186 9.133-3.557 11.504s-6.205 3.555-11.504 3.555h-81.568v35.975h115.451c5.298 0 9.133 1.186 11.504 3.557s3.555 6.203 3.555 11.502v48.941c0 5.298-1.184 9.133-3.555 11.504s-6.205 3.557-11.504 3.557h-194.094zm273.572 0c-5.298 0-9.134-1.186-11.504-3.557s-3.555-6.205-3.555-11.504v-271.06c0-5.299 1.184-9.133 3.555-11.504s6.205-3.555 11.504-3.555h43.504c5.299 0 9.829.837 13.594 2.51s7.461 4.6 11.086 8.783l81.15 92.865v-89.1c0-5.299 1.186-9.133 3.557-11.504s6.203-3.555 11.502-3.555h62.746c5.299 0 9.133 1.185 11.504 3.555s3.555 6.205 3.555 11.504v271.061c0 5.298-1.184 9.133-3.555 11.504s-6.205 3.557-11.504 3.557h-62.746c-5.299 0-9.132-1.186-11.502-3.557s-3.557-6.205-3.557-11.504v-51.451l-71.529-86.588v138.039c0 5.298-1.186 9.133-3.557 11.504s-6.203 3.557-11.502 3.557h-62.746zm398.227 0c-34.859 0-60.724-6.973-77.596-20.916s-25.309-35.415-25.309-64.418v-130.512c0-29.003 8.437-50.476 25.309-64.42s42.737-20.914 77.596-20.914h104.576c5.299 0 9.131 1.185 11.502 3.555s3.557 6.205 3.557 11.504v50.615c0 5.298-1.186 9.132-3.557 11.502s-6.203 3.557-11.502 3.557H2385.5c-8.645 0-15.059 1.743-19.242 5.229s-6.275 8.716-6.275 15.688v99.975c0 6.972 1.604 12.13 4.811 15.477s8.018 5.02 14.432 5.02h40.576v-65.256c0-5.298 1.184-9.131 3.555-11.502s6.205-3.557 11.504-3.557h64.838c5.299 0 9.132 1.186 11.502 3.557s3.557 6.203 3.557 11.502v129.256c0 5.298-1.186 9.133-3.557 11.504s-6.203 3.557-11.502 3.557h-131.766zm212.916 0c-5.299 0-9.134-1.186-11.504-3.557s-3.555-6.205-3.555-11.504v-271.06c0-5.299 1.185-9.133 3.555-11.504s6.205-3.555 11.504-3.555h194.094c5.299 0 9.134 1.185 11.504 3.555s3.555 6.205 3.555 11.504v48.941c0 5.298-1.185 9.133-3.555 11.504s-6.205 3.555-11.504 3.555H2659.49v32.211h81.57c5.298 0 9.134 1.184 11.504 3.555s3.555 6.205 3.555 11.504v44.758c0 5.299-1.184 9.133-3.555 11.504s-6.206 3.555-11.504 3.555h-81.57v35.975h115.453c5.299 0 9.134 1.186 11.504 3.557s3.555 6.203 3.555 11.502v48.941c0 5.298-1.185 9.133-3.555 11.504s-6.205 3.557-11.504 3.557h-194.094zM883.787 1787.037h65.674l-19.66-63.582c-1.116-2.51-2.302-4.322-3.557-5.437s-2.72-1.674-4.393-1.674h-10.457c-1.673 0-3.138.558-4.393 1.674s-2.439 2.928-3.555 5.438l-19.66 63.582zm-513.26-352.211c-5.299 0-9.133-1.186-11.504-3.557s-3.555-6.203-3.555-11.502v-205.389h-61.492c-5.298 0-9.132-1.184-11.502-3.555s-3.557-6.205-3.557-11.504v-50.613c0-5.299 1.186-9.133 3.557-11.504s6.203-3.557 11.502-3.557h220.865c5.298 0 9.133 1.187 11.504 3.557s3.557 6.205 3.557 11.504v50.613c0 5.298-1.186 9.134-3.557 11.504s-6.205 3.555-11.504 3.555h-61.49v205.389c0 5.298-1.184 9.131-3.555 11.502s-6.205 3.557-11.504 3.557h-67.766zm215.008 0c-5.299 0-9.133-1.186-11.504-3.557s-3.555-6.203-3.555-11.502v-271.061c0-5.299 1.185-9.133 3.555-11.504s6.205-3.557 11.504-3.557h64.838c5.298 0 9.134 1.187 11.504 3.557s3.555 6.205 3.555 11.504v90.771h69.857v-90.771c0-5.299 1.184-9.133 3.555-11.504s6.206-3.557 11.504-3.557h64.838c5.299 0 9.131 1.187 11.502 3.557s3.557 6.205 3.557 11.504v271.061c0 5.298-1.186 9.131-3.557 11.502s-6.203 3.557-11.502 3.557h-64.838c-5.298 0-9.134-1.186-11.504-3.557s-3.555-6.203-3.555-11.502v-92.863h-69.857v92.863c0 5.298-1.184 9.131-3.555 11.502s-6.205 3.557-11.504 3.557h-64.838zm317.494 0c-5.299 0-9.133-1.186-11.504-3.557s-3.557-6.203-3.557-11.502v-271.061c0-5.299 1.187-9.133 3.557-11.504s6.205-3.557 11.504-3.557h194.092c5.298 0 9.133 1.187 11.504 3.557s3.557 6.205 3.557 11.504v48.941c0 5.298-1.187 9.131-3.557 11.502s-6.206 3.557-11.504 3.557H981.67v32.209h81.57c5.298 0 9.131 1.184 11.502 3.555s3.557 6.205 3.557 11.504v44.758c0 5.299-1.186 9.133-3.557 11.504s-6.203 3.557-11.502 3.557h-81.57v35.975h115.451c5.298 0 9.133 1.184 11.504 3.555s3.557 6.206 3.557 11.504v48.941c0 5.298-1.187 9.131-3.557 11.502s-6.206 3.557-11.504 3.557H903.029zm422.904 0c-5.299 0-9.131-1.186-11.502-3.557s-3.557-6.203-3.557-11.502v-205.389h-61.49c-5.298 0-9.134-1.184-11.504-3.555s-3.555-6.205-3.555-11.504v-50.613c0-5.299 1.184-9.133 3.555-11.504s6.205-3.557 11.504-3.557h220.865c5.299 0 9.133 1.187 11.504 3.557s3.555 6.205 3.555 11.504v50.613c0 5.298-1.185 9.134-3.555 11.504s-6.205 3.555-11.504 3.555h-61.492v205.389c0 5.298-1.184 9.131-3.555 11.502s-6.205 3.557-11.504 3.557h-67.766zm215.01 0c-5.299 0-9.133-1.186-11.504-3.557s-3.557-6.203-3.557-11.502v-271.061c0-5.299 1.186-9.133 3.557-11.504s6.205-3.557 11.504-3.557h139.295c31.233 0 52.777 6.484 64.629 19.451s17.777 29.77 17.777 50.406v19.242c0 11.713-1.743 21.682-5.229 29.908s-9.552 14.152-18.197 17.777c15.059 1.673 27.259 7.809 36.602 18.406s14.014 24.679 14.014 42.248v88.682c0 5.298-1.186 9.131-3.557 11.502s-6.203 3.557-11.502 3.557h-64.838c-5.299 0-9.133-1.186-11.504-3.557s-3.555-6.203-3.555-11.502v-64c0-6.135-1.184-10.667-3.555-13.596s-6.484-4.393-12.34-4.393h-58.564v81.988c0 5.298-1.184 9.131-3.555 11.502s-6.205 3.557-11.504 3.557h-64.418zm634.568 0c-5.299 0-9.133-1.186-11.504-3.557s-3.557-6.203-3.557-11.502v-48.941c0-5.298 1.187-9.134 3.557-11.504s6.205-3.555 11.504-3.555h112.523c3.625 0 6.344-1.187 8.156-3.557s2.719-5.228 2.719-8.574c0-4.741-.906-8.228-2.719-10.459s-4.531-3.485-8.156-3.764l-62.746-8.785c-19.521-2.789-35.206-9.203-47.059-19.242s-17.779-26.77-17.779-50.195v-43.924c0-23.704 7.67-41.899 23.008-54.588s36.531-19.033 63.582-19.033h117.125c5.298 0 9.134 1.187 11.504 3.557s3.555 6.205 3.555 11.504v49.777c0 5.298-1.184 9.133-3.555 11.504s-6.206 3.555-11.504 3.555H2266.7c-3.625 0-6.413 1.185-8.365 3.555s-2.93 5.369-2.93 8.994.978 6.693 2.93 9.203 4.74 3.905 8.365 4.184l62.328 8.365c19.521 2.789 35.276 9.203 47.268 19.242s17.986 26.772 17.986 50.197v43.922c0 23.704-7.738 41.899-23.215 54.588s-36.602 19.033-63.373 19.033H2175.51zm279.426 0c-5.299 0-9.133-1.186-11.504-3.557s-3.555-6.203-3.555-11.502v-271.061c0-5.299 1.185-9.133 3.555-11.504s6.205-3.557 11.504-3.557h64.838c5.299 0 9.134 1.187 11.504 3.557s3.555 6.205 3.555 11.504v90.771h69.857v-90.771c0-5.299 1.184-9.133 3.555-11.504s6.206-3.557 11.504-3.557h64.838c5.299 0 9.132 1.187 11.502 3.557s3.557 6.205 3.557 11.504v271.061c0 5.298-1.187 9.131-3.557 11.502s-6.203 3.557-11.502 3.557h-64.838c-5.298 0-9.134-1.186-11.504-3.557s-3.555-6.203-3.555-11.502v-92.863h-69.857v92.863c0 5.298-1.184 9.131-3.555 11.502s-6.205 3.557-11.504 3.557h-64.838zm-834.518-172.342h31.373c7.251 0 12.131-1.882 14.641-5.646s3.766-8.437 3.766-14.014v-14.223c0-5.578-1.256-10.249-3.766-14.014s-7.39-5.646-14.641-5.646h-31.373v53.543zm270.846 175.144c-10.435 0-18.686-2.836-24.754-8.507s-9.329-13.781-9.783-24.329l-10.888-248.561h-25.69c-3.403 0-6.38-1.276-8.932-3.828s-3.828-5.586-3.828-9.102c0-3.403 1.276-6.38 3.828-8.932s5.889-4.316 9.292-4.316h75.8 0 0 0 0v-26.239c-.621-12.12 3.779-21.725 11.661-29.154s18.459-11.661 32.069-11.661h64.139c13.663 0 24.187 4.232 32.069 11.661s11.662 16.337 11.662 29.154v26.239h0 0 0 0 75.8c3.979.488 6.984 1.735 9.48 4.231s3.743 5.501 3.743 9.017-1.248 6.55-3.743 9.102-5.501 3.828-9.017 3.828h-25.52l-10.888 248.561c-.453 10.548-3.715 18.658-9.783 24.329s-14.375 8.507-24.924 8.507zm35.656-307.574h0 0 90.377 0 1.458 0-1.458v-23.323c.373-4.828-1.651-7.595-4.373-10.204s-5.554-4.373-10.204-4.373h-61.223c-4.525-.231-8.94 1.764-11.662 4.373s-2.916 5.894-2.916 10.204z"/></svg>